<?xml version="1.0" encoding="UTF-8"?>
<!-- Generator: Adobe Illustrator 23.0.2, SVG Export Plug-In . SVG Version: 6.00 Build 0)  -->
<svg version="1.1" id="Capa_1" xmlns="http://www.w3.org/2000/svg" xmlns:xlink="http://www.w3.org/1999/xlink" x="0px" y="0px" width="505px" height="155px" viewBox="0 0 505 155" style="enable-background:new 0 0 505 155;" xml:space="preserve">
<style type="text/css">
	.st0{clip-path:url(#SVGID_2_);fill:url(#SVGID_3_);}
	.st1{fill:#FFFFFF;}
	.st2{fill:#13143A;}
	.st3{fill:#223964;}
	.st4{fill:#14153A;}
	.st5{fill:none;stroke:#223964;stroke-miterlimit:10;}
	.st6{fill:#2820A5;}
	.st7{fill:none;}
	.st8{fill:#242FF8;}
</style>
<g>
	<g>
		<defs>
			<path id="SVGID_1_" d="M9,77.5C9,115.3,39.7,146,77.5,146c37.8,0,68.5-30.7,68.5-68.5C146,39.7,115.3,9,77.5,9     C39.7,9,9,39.7,9,77.5"/>
		</defs>
		<clipPath id="SVGID_2_">
			<use xlink:href="#SVGID_1_" style="overflow:visible;"/>
		</clipPath>
		
			<radialGradient id="SVGID_3_" cx="631.0438" cy="786.7372" r="1" gradientTransform="matrix(68.5 0 0 -68.5 -43149 53969)" gradientUnits="userSpaceOnUse">
			<stop offset="0" style="stop-color:#8FFFFF"/>
			<stop offset="0.4824" style="stop-color:#8FFFFF"/>
			<stop offset="1" style="stop-color:#4070B7"/>
		</radialGradient>
		<rect x="9" y="9" class="st0" width="137" height="137"/>
	</g>
	<path class="st1" d="M77.7,125.2c-9,0-23.9-2.8-32.3-4.6c-5.8-1.3-11.6-2.8-17.4-4.3c-1.3-0.3-2.4-1-3.7-1.5   c2.4-5.6,10.9-10.6,16.4-9.1c11.1,2.9,22.3,1.8,33.5,1.6c8.5-0.1,16.9-0.8,25.4-1.3c1.5-0.1,3-0.3,4.4-0.8c5-1.5,6.7-5,4-9.5   c-2.1-3.5-4.8-6.8-7.8-9.4C93.8,81,86.8,76.2,80.1,70.9c-1.7-1.4-2.9-1-4.7-0.2c-7.5,3.4-14.9,7-22.7,9.6   c-4.1,1.4-8.8,1.2-13.3,1.2c-3,0-5-2.1-4.2-5.3c0.9-3.5,1.6-7.2,3.5-10.1c8-12,16.3-23.9,24.8-35.6c4-5.4,8.8-10.2,13.2-15.3   c0.6-0.7,1.3-1.3,2.1-1.9c1-0.9,2.5-0.8,3.5,0c7,6,14,11.7,20.6,17.9c8.4,8,16.3,16.6,24.5,24.8c2.1,2.1,2.8,4.3,2.8,7.3   c0,2.9,2.4,7.9,3.2,10.8c0.6,1.2,0.1,1.6-0.3,2.2c-0.6,0.7-1.6,0.8-2.3,0.3c-5.2-4.2-10.5-8.4-15.6-12.9c-3-2.6-4.4-6.3-4.4-10.4   c0-3-0.8-5.7-3.6-7.4c-8.6-5.2-17-10.9-25.8-15.8c-1.1-0.6-3-1-4.8,1c-7.5,8.1-14.4,16.3-18.6,26.5c-0.5,1.1-0.5,3.2,0.1,3.7   c0.9,0.7,1.7,1.3,3.4,0.9c4.3-1,8.5-4.4,12-7c2.1-1.6,5.1-1.5,7.2,0.1c14.8,11.3,28.9,23.4,41.7,36.9c2.4,2.5,4.6,5.3,6.4,8.3   c3.4,5.7,1.6,10.5-4.5,12.9c-4,1.5-7.9,3-12,4.2c-7.3,2.1-14.6,4.1-21.9,6.1C80.7,125.2,79.7,125.2,77.7,125.2"/>
	<g>
		<path class="st2" d="M189.6,54.3h-5.6V52h4.8c3.5,0,3.8-1.1,3.8-2.1c0-2.6-8.9-3.8-8.7-8.2c0.1-2.5,1.7-4,5-4h5.3V40h-4.7    c-2.8,0-3.1,0.9-3.1,1.8c0.1,3.2,8.6,3.4,8.6,8.4C195,52.7,193.5,54.3,189.6,54.3z"/>
		<path class="st2" d="M206.6,54.2v-4.9c0-4.6-3.6-4.6-3.8-4.6c-2.1-0.1-3.8,2-3.6,4.1c0.1,2,1.6,3.5,3.6,3.6    c1.3,0.1,2.9-0.9,3.1-1.1v2.3c-0.2,0.1-2.1,1-3.5,0.8c-3-0.3-5.6-2.8-5.4-6.1c0.2-3.1,2.5-5.8,6-5.6c3.6,0.1,5.8,2.9,5.8,5.9v5.6    H206.6z"/>
		<path class="st2" d="M219.1,54.2v-6c0-3.3-1.7-3.4-2.6-3.5c-1.2-0.2-2.8,1-2.8,2.9v6.6h-2.2v-6.4c0-3.4,2.6-5.1,5.1-5.1    c1.2,0,4.8,1,4.8,5v6.5H219.1z"/>
		<path class="st2" d="M233,54.2v-4.9c0-4.6-3.6-4.6-3.8-4.6c-2.1-0.1-3.8,2-3.6,4.1c0.1,2,1.6,3.5,3.6,3.6c1.3,0.1,2.9-0.9,3.1-1.1    v2.3c-0.2,0.1-2.1,1-3.5,0.8c-3-0.3-5.6-2.8-5.4-6.1c0.2-3.1,2.5-5.8,6-5.6c3.6,0.1,5.8,2.9,5.8,5.9v5.6H233z"/>
		<path class="st2" d="M242.6,54.2c-1.5,0-2.8-0.2-3.6-1.5c-0.6-0.7-0.8-1.6-0.8-2.4V40h2.2v2.8h3.8V45h-3.7V50c0,0.7,0,1.1,0.6,1.6    c0.6,0.5,1.4,0.4,1.9,0.4h1.3v2.3H242.6z"/>
		<path class="st2" d="M250.9,54.4c-3.2,0-5.8-2.6-5.9-5.8c-0.1-3.3,2.7-6,6-6c3.2,0,5.8,2.6,5.9,5.8    C257,51.7,254.2,54.4,250.9,54.4z M251.2,44.6c-2.1-0.1-3.9,1.8-3.9,3.9c0,2.1,1.6,3.9,3.7,3.9c2.1,0,3.8-1.9,3.8-4    C254.7,46.4,253.2,44.6,251.2,44.6z"/>
		<path class="st2" d="M262.2,46c-0.6,0.8-0.7,1.5-0.7,2.5v5.7h-2.3V42.8h2.2v1.2c0.3-0.3,0.6-0.5,1.1-0.7c1-0.5,3.2-0.4,3.2-0.4V45    C264.3,45,263.1,44.8,262.2,46z"/>
		<path class="st2" d="M267.5,40.2c0.1-1.8,2.7-1.7,2.7,0C270.1,42.1,267.4,41.8,267.5,40.2z M267.7,54.2V42.8h2.3v11.4H267.7z"/>
		<path class="st2" d="M278.3,54.4c-3.2,0-5.8-2.6-5.9-5.8c-0.1-3.3,2.7-6,6-6c3.2,0,5.8,2.6,5.9,5.8    C284.4,51.7,281.6,54.4,278.3,54.4z M278.5,44.6c-2.1-0.1-3.9,1.8-3.9,3.9c0,2.1,1.6,3.9,3.7,3.9c2.1,0,3.8-1.9,3.8-4    C282.1,46.4,280.6,44.6,278.5,44.6z"/>
		<path class="st2" d="M297.5,54.4c-3.7-0.2-5.6-2.9-5.7-5.8c-0.2-3.2,2.4-6,5.8-6c0.8,0,1.6,0.3,2.1,0.4l0.9,0.4v2.4l-0.4-0.4    c-0.3-0.3-1.6-0.9-2.7-0.9c-2,0-3.5,1.7-3.5,3.6c-0.1,2.3,1.3,4,3.6,4.1c0.2,0,3.6-0.1,3.6-4V37.7h2.3v10.8    C303.5,51.5,301.1,54.6,297.5,54.4z"/>
		<path class="st2" d="M311.4,54.4c-3.3-0.1-5.9-2.8-5.8-6.1c0.1-3.2,2.7-5.7,5.9-5.7c2.5,0,4.4,1.4,5.4,3.6l-7.6,4.4l-1-1.7    l5.6-3.2c-0.5-0.6-1.5-1-2.6-1c-2,0-3.5,1.8-3.5,3.8c0,2.1,1.7,3.8,3.8,3.8c1.7,0,3.5-1.3,3.5-3.4l2.2,0.2    C317.1,52.4,314.5,54.5,311.4,54.4z"/>
	</g>
	<g>
		<path class="st3" d="M175.8,86.5V68.3h-15.7v-5.6h15.6v-3.9c0-4.6-3.7-8.8-8.4-8.6c-6.6,0.1-8.8,4.7-8.8,9.4v27h-5.9V59.8    c0-9,6.3-15.2,14.2-15.2c8.6,0.1,15.1,5.8,15.1,18v23.8H175.8z"/>
		<path class="st3" d="M208.3,97.9c-6.8,3.1-15,0.7-15.1,0.7l-1.8-0.4l1.4-5.2l2.5,0.7c3.6,1,7.2,0.9,9.4,0.2    c5.2-1.8,5.7-4.5,5.7-9.6V73.8c0-6.6-3.6-11.5-9.3-11.4c-5.2,0.2-9.2,4.6-9.2,9.9c0.1,5.2,3.7,9.6,9.5,9.5    c2.3-0.2,3.8-0.5,5.8-1.7l1.4-0.8v5.5c-1.8,1.1-4.5,1.9-7.5,2c-7.4,0.4-14.8-6.6-14.5-14.4c0.4-8.3,6.5-14.7,14.6-14.7    c9.6-0.1,14.9,7.3,14.9,15.7v11.6C216,91.1,213.7,95.5,208.3,97.9z"/>
		<path class="st3" d="M235.3,87c-6.4-0.1-12.7-4.4-12.7-12.8V58h5.5v16.5c0,4.9,4.1,7.7,6.9,7.4c2.3-0.3,6.5-0.4,6.6-8.8V58h5.7    v16.4C247.3,84.6,238.2,87,235.3,87z"/>
		<path class="st3" d="M276.4,86.5V74.3c0.1-11.5-9-11.5-9.5-11.5c-5.3-0.2-9.4,4.9-9,10.2c0.2,4.9,3.9,8.6,9.1,9.1    c3.1,0.2,7.3-2.3,7.7-2.7V85c-0.4,0.2-5.2,2.4-8.7,2.1c-7.5-0.8-13.9-7-13.6-15.1c0.4-7.8,6.3-14.5,15-14.1    c9,0.3,14.5,7.2,14.5,14.6v14.1H276.4z"/>
		<path class="st3" d="M316.1,87.1c-9.2-0.4-14.1-7.3-14.3-14.4c-0.5-8,6.1-15,14.5-14.9c2,0,4,0.6,5.1,1.1l2.2,1v6l-0.9-1    c-0.7-0.7-4.1-2.2-6.8-2.2c-5.1,0.1-8.7,4.2-8.8,9.1c-0.3,5.7,3.4,10.1,9,10.3c0.4,0,9.1-0.3,9.1-9.9V45.4h5.7v26.9    C331,79.8,325.1,87.5,316.1,87.1z"/>
		<path class="st3" d="M350.8,87.1c-8.1-0.2-14.6-7-14.4-15.1c0.2-7.9,6.8-14.3,14.8-14.3c6.2,0,10.9,3.6,13.5,8.9l-18.8,10.9    l-2.4-4.2l13.9-7.9c-1.4-1.6-3.8-2.6-6.5-2.5c-5.1,0.1-8.8,4.5-8.8,9.6c0.1,5.2,4.3,9.5,9.5,9.5c4.3-0.1,8.7-3.2,8.8-8.5l5.4,0.6    C364.9,81.9,358.5,87.2,350.8,87.1z"/>
		<path class="st3" d="M395.6,86.5l-1.8-0.1v-5.6h3.8c7.6,0,13.6-7.6,13.4-14.2C410.7,53.8,400.7,51,395.8,51h-4v35.5h-6.3V45.4    h10.3c11.9,0,21.4,9.7,21.1,21.4C416.5,78,407.9,87,395.6,86.5z"/>
		<path class="st3" d="M423.1,51.7c0.3-4.4,6.8-4.2,6.6,0.1C429.6,56.3,422.9,55.7,423.1,51.7z M423.8,86.5V58h5.7v28.5H423.8z"/>
		<path class="st3" d="M450.2,87c-7.9-0.1-14.4-6.4-14.6-14.4c-0.2-8.2,6.7-15,14.9-15c7.9,0.1,14.5,6.4,14.7,14.3    C465.4,80.1,458.4,87.1,450.2,87z M450.8,62.5c-5.3-0.2-9.6,4.4-9.6,9.7c0,5.2,4,9.6,9.1,9.7c5.4,0.1,9.6-4.6,9.5-9.9    C459.7,67,455.9,62.6,450.8,62.5z"/>
		<path class="st3" d="M482.5,86.5h-12v-5.7h13.1c2.1,0,4.3,0.1,4.2-1.6c-0.2-5.6-18.2-4.4-17.7-13.9c0.3-5.4,4.4-7.3,8.9-7.3h12.8    v5.6h-13.4c-1.6,0-2.9,0.5-2.9,1.7c-0.1,4.6,18.5,4,17.8,13.9C492.8,84.3,489.2,86.5,482.5,86.5z"/>
	</g>
	<g>
		<path class="st4" d="M227,101.9c0.2,1.4,0.6,2.4,1.7,3.4c1.1,1,2.7,1.5,3.6,1.5h2.4v2.2H233c-5,0-8.3-3.4-8.3-7.9    c0-4.4,3.7-8,8.1-8h2v2.2h-1.1c-1.9,0-3.5,0.3-4.9,1.7c-0.8,0.8-1.2,1.4-1.5,2.5l-0.1,0.3h7.7v2.2H227z"/>
		<path class="st4" d="M249.7,109v-6.5c0-2-0.9-2.7-2-2.7c-1.2,0-2.2,0.6-2.2,2.7v6.5h-2.3v-6.8c0-2.2-1.3-2.4-2.2-2.5    c-0.6-0.1-1.9,0.5-1.9,2.4v6.9h-2.3v-6.7c0-2.5,1.7-4.6,4.1-4.6c1.1,0,2.2,0.3,2.9,1l0.5,0.6l0.3-0.4c0.4-0.5,1.7-1.1,3-1.2    c2.5,0,4.2,1.7,4.2,4.4v6.8H249.7z"/>
		<path class="st4" d="M260.5,109.2c-1,0-1.7-0.1-2.7-0.5l-0.6-0.3v-2.2l0.4,0.2c0.9,0.5,1.5,0.8,2.6,0.8c2,0,3.7-1.5,3.6-3.6    c0-2.2-1.3-3.8-3.7-3.8c-0.1,0-3.6,0-3.6,4.7v9.4h-2.2v-9.8c0-3.3,2.1-6.1,5.6-6.2c3.4-0.1,5.9,2.4,6,5.5    C266.2,106.8,263.3,109.3,260.5,109.2z"/>
		<path class="st4" d="M271.1,101c-0.6,0.8-0.7,1.4-0.7,2.4v5.5h-2.3V97.9h2.1V99c0.3-0.3,0.6-0.5,1-0.7c1-0.5,3.1-0.4,3.1-0.4v2.2    C273.1,100.1,271.9,99.9,271.1,101z"/>
		<path class="st4" d="M280.8,109.2c-3.1-0.1-5.7-2.7-5.6-5.9c0.1-3.1,2.6-5.5,5.7-5.5c2.4,0,4.2,1.4,5.2,3.4l-7.3,4.2l-0.9-1.6    l5.4-3.1c-0.5-0.6-1.5-1-2.5-1c-2,0-3.4,1.8-3.4,3.7c0,2,1.7,3.7,3.7,3.7c1.7,0,3.3-1.2,3.4-3.3l2.1,0.2    C286.3,107.2,283.8,109.2,280.8,109.2z"/>
		<path class="st4" d="M293.3,109h-4.6v-2.2h5.1c0.8,0,1.7,0,1.6-0.6c-0.1-2.2-7-1.7-6.9-5.4c0.1-2.1,1.7-2.8,3.4-2.8h4.9v2.2h-5.2    c-0.6,0-1.1,0.2-1.1,0.6c0,1.8,7.2,1.5,6.9,5.4C297.3,108.1,295.9,109,293.3,109z"/>
		<path class="st4" d="M308.3,109v-4.7c0-4.5-3.5-4.5-3.7-4.5c-2.1-0.1-3.6,1.9-3.5,4c0.1,1.9,1.5,3.3,3.5,3.5c1.2,0.1,2.8-0.9,3-1    v2.2c-0.1,0.1-2,0.9-3.4,0.8c-2.9-0.3-5.4-2.7-5.3-5.9c0.1-3,2.4-5.6,5.8-5.4c3.5,0.1,5.6,2.8,5.6,5.7v5.4H308.3z"/>
		<path class="st4" d="M324,109h-5.4v-2.1h4.7c3.3,0,3.7-1,3.7-2c0-2.5-8.6-3.6-8.4-7.9c0.1-2.4,1.7-3.8,4.9-3.8h5.1v2.1h-4.5    c-2.7,0-3,0.9-3,1.7c0.1,3.1,8.3,3.3,8.3,8.1C329.2,107.5,327.7,109,324,109z"/>
		<path class="st4" d="M336.4,109.1c-3.1,0-5.6-2.5-5.7-5.6c-0.1-3.2,2.6-5.8,5.8-5.8c3.1,0,5.6,2.5,5.7,5.5    C342.3,106.5,339.6,109.2,336.4,109.1z M336.6,99.7c-2.1-0.1-3.7,1.7-3.7,3.8c0,2,1.5,3.7,3.5,3.7c2.1,0,3.7-1.8,3.7-3.9    C340.1,101.4,338.6,99.7,336.6,99.7z"/>
		<path class="st4" d="M349.4,109c-3,0-5.6-2.5-5.6-5.5c0-3,2.4-5.5,5.4-5.5h2.1v2.2h-1.1c-3.4,0-4.1,1.9-4.1,3.5    c0,1.8,1.5,3.2,3.1,3.2h2.1v2.2H349.4z"/>
		<path class="st4" d="M354,95.5c0.1-1.7,2.6-1.6,2.6,0C356.5,97.3,353.9,97,354,95.5z M354.3,109v-11h2.2v11H354.3z"/>
		<path class="st4" d="M368.4,109v-4.7c0-4.5-3.5-4.5-3.7-4.5c-2.1-0.1-3.6,1.9-3.5,4c0.1,1.9,1.5,3.3,3.5,3.5c1.2,0.1,2.8-0.9,3-1    v2.2c-0.1,0.1-2,0.9-3.4,0.8c-2.9-0.3-5.4-2.7-5.3-5.9c0.1-3,2.4-5.6,5.8-5.4c3.5,0.1,5.6,2.8,5.6,5.7v5.4H368.4z"/>
		<path class="st4" d="M373.9,109V93.1h2.2l0,15.9H373.9z"/>
		<path class="st4" d="M390.1,109.2c-3.6-0.1-5.4-2.8-5.5-5.6c-0.2-3.1,2.3-5.8,5.6-5.8c0.8,0,1.5,0.3,2,0.4l0.9,0.4v2.3l-0.4-0.4    c-0.3-0.3-1.6-0.9-2.6-0.8c-2,0-3.3,1.6-3.4,3.5c-0.1,2.2,1.3,3.9,3.5,4c0.2,0,3.5-0.1,3.5-3.8V93.1h2.2v10.4    C395.9,106.4,393.6,109.4,390.1,109.2z"/>
		<path class="st4" d="M403.6,109.2c-3.1-0.1-5.7-2.7-5.6-5.9c0.1-3.1,2.6-5.5,5.7-5.5c2.4,0,4.2,1.4,5.2,3.4l-7.3,4.2l-0.9-1.6    l5.4-3.1c-0.5-0.6-1.5-1-2.5-1c-2,0-3.4,1.8-3.4,3.7c0,2,1.7,3.7,3.7,3.7c1.7,0,3.3-1.2,3.4-3.3l2.1,0.2    C409.1,107.2,406.6,109.2,403.6,109.2z"/>
		<path class="st4" d="M412.1,109V93.1h2.2l0,15.9H412.1z"/>
		<path class="st4" d="M425.4,101.9c0.2,1.4,0.6,2.4,1.7,3.4c1.1,1,2.7,1.5,3.6,1.5h2.4v2.2h-1.7c-5,0-8.3-3.4-8.3-7.9    c0-4.4,3.7-8,8.1-8h2v2.2H432c-1.9,0-3.5,0.3-4.9,1.7c-0.8,0.8-1.2,1.4-1.5,2.5l-0.1,0.3h7.7v2.2H425.4z"/>
		<path class="st4" d="M440.1,109h-4.6v-2.2h5.1c0.8,0,1.7,0,1.6-0.6c-0.1-2.2-7-1.7-6.9-5.4c0.1-2.1,1.7-2.8,3.4-2.8h4.9v2.2h-5.2    c-0.6,0-1.1,0.2-1.1,0.6c0,1.8,7.2,1.5,6.9,5.4C444.1,108.1,442.7,109,440.1,109z"/>
		<path class="st4" d="M450.9,109c-1.4,0-2.7-0.2-3.5-1.4c-0.5-0.7-0.8-1.5-0.8-2.3v-10h2.1v2.7h3.6v2.2h-3.6v4.8c0,0.7,0,1,0.6,1.5    c0.5,0.5,1.3,0.4,1.9,0.4h1.2v2.2H450.9z"/>
		<path class="st4" d="M462.9,109v-4.7c0-4.5-3.5-4.5-3.7-4.5c-2.1-0.1-3.6,1.9-3.5,4c0.1,1.9,1.5,3.3,3.5,3.5c1.2,0.1,2.8-0.9,3-1    v2.2c-0.1,0.1-2,0.9-3.4,0.8c-2.9-0.3-5.4-2.7-5.3-5.9c0.1-3,2.4-5.6,5.8-5.4c3.5,0.1,5.6,2.8,5.6,5.7v5.4H462.9z"/>
		<path class="st4" d="M472.5,109.2c-3.6-0.1-5.4-2.8-5.5-5.6c-0.2-3.1,2.3-5.8,5.6-5.8c0.8,0,1.5,0.3,2,0.4l0.9,0.4v2.3l-0.4-0.4    c-0.3-0.3-1.6-0.9-2.6-0.8c-2,0-3.3,1.6-3.4,3.5c-0.1,2.2,1.3,3.9,3.5,4c0.2,0,3.5-0.1,3.5-3.8V93.1h2.2v10.4    C478.3,106.4,476,109.4,472.5,109.2z"/>
		<path class="st4" d="M485.8,109.1c-3.1,0-5.6-2.5-5.7-5.6c-0.1-3.2,2.6-5.8,5.8-5.8c3.1,0,5.6,2.5,5.7,5.5    C491.6,106.5,489,109.2,485.8,109.1z M486,99.7c-2.1-0.1-3.7,1.7-3.7,3.8c0,2,1.5,3.7,3.5,3.7c2.1,0,3.7-1.8,3.7-3.9    C489.4,101.4,488,99.7,486,99.7z"/>
	</g>
	<line class="st5" x1="224" y1="90" x2="493" y2="90"/>
	<path class="st6" d="M75,54c0,0,3-4,12.3,6V29H75"/>
	<path class="st7" d="M105.5,106.1c5-1.5,6.7-5,4-9.5c-2.1-3.5-4.8-6.8-7.8-9.4c-4.6-3.9-9.5-7.4-14.4-11.1v31.5   c4.6-0.3,9.2-0.6,13.8-0.8C102.5,106.8,104,106.5,105.5,106.1z"/>
	<path class="st8" d="M87.3,66v10.2c4.9,3.6,9.7,7.2,14.4,11.1c3.1,2.6,5.8,5.9,7.8,9.4c2.7,4.5,0.9,8-4,9.5   c-1.4,0.4-2.9,0.7-4.4,0.8c-4.6,0.3-9.2,0.6-13.8,0.8v17.5c1.3-0.2,2.8-0.4,4.7-0.7c7.3-2,14.7-3.9,21.9-6.1c4.1-1.2,8-2.7,12-4.2   c6.1-2.3,7.8-7.2,4.5-12.9c-1.8-3-4-5.8-6.4-8.3c-12.8-13.6-26.9-25.6-41.7-36.9c-2.1-1.6-5-1.7-7.2-0.1c-3.5,2.6-7.8,6-12,7   c-1.7,0.4-2.4-0.1-3.4-0.9c-0.6-0.5-0.5-2.6-0.1-3.7C63.8,48.3,70.7,40,78.2,32c1.8-2,3.7-1.6,4.8-1c8.8,5,17.2,10.6,25.8,15.8   c2.8,1.7,3.6,4.4,3.6,7.4c0,4.1,1.4,7.8,4.4,10.4c5,4.4,10.3,8.6,15.6,12.9c0.7,0.6,1.7,0.5,2.3-0.3c0.5-0.6,1-1,0.3-2.2   c-0.8-2.9-3.2-7.9-3.2-10.8c0-3-0.8-5.2-2.8-7.3c-8.2-8.3-16-16.8-24.5-24.8c-6.6-6.2-13.6-12-20.6-17.9c-1-0.9-2.5-0.9-3.5,0   c-0.8,0.7-1.5,1.3-2.1,1.9c-4.5,5-9.3,9.9-13.2,15.3C56.5,43,48.2,54.9,40.2,66.9c-1.9,2.9-2.7,6.7-3.5,10.1   c-0.8,3.2,1.1,5.3,4.2,5.3c4.4,0,9.2,0.2,13.3-1.2c7.1-2.4,14-5.7,20.9-8.8V66H87.3z"/>
	<path class="st8" d="M42.1,106.5c-5.5-1.5-14,3.5-16.4,9.1c1.2,0.5,2.4,1.2,3.7,1.5c5.8,1.5,11.6,3,17.4,4.3   C54,123,66,125.3,75,125.9v-17.7C64,108.3,53,109.4,42.1,106.5z"/>
	<path class="st8" d="M81.4,71.8c1.9,1.5,3.9,3,5.8,4.4V66H75v6.4c0.6-0.3,1.2-0.5,1.8-0.8C78.5,70.8,79.7,70.4,81.4,71.8z"/>
	<path class="st6" d="M81.4,71.7c-1.7-1.3-2.9-0.9-4.7-0.2c-0.6,0.3-1.2,0.5-1.8,0.8v34.2v16.9V135h12.3v-12.2V106V76   C85.3,74.6,83.4,73.2,81.4,71.7z"/>
</g>
</svg>